<mxfile host="app.diagrams.net" modified="2023-08-13T21:26:39.062Z" agent="Mozilla/5.0 (Windows NT 10.0; Win64; x64) AppleWebKit/537.36 (KHTML, like Gecko) Chrome/115.0.0.0 Safari/537.36" version="21.6.8" etag="ZhJbI8W-VhN6JXw8pROd" type="github">
  <diagram name="Страница — 1" id="vlPtj3CDsVgM4bX7ovpN">
    <mxGraphModel>
      <root>
        <mxCell id="0" />
        <mxCell id="1" parent="0" />
      </root>
    </mxGraphModel>
  </diagram>
</mxfile>
